<!-- icon666.com - MILLIONS vector ICONS FREE --><svg viewBox="0 0 32 32" xmlns="http://www.w3.org/2000/svg"><g id="Layer_29" data-name="Layer 29"><path d="m28.7324 5.5186h-7.6015v-1.6846a1.5445 1.5445 0 0 0 -1.5-1.582h-6.0254a1.5445 1.5445 0 0 0 -1.5 1.582v1.6846h-7.6026a.5.5 0 0 0 0 1h1.5125l1.0852 21.2793a1.5154 1.5154 0 0 0 1.498 1.4541h16.09a1.5121 1.5121 0 0 0 1.499-1.4747l.81-21.2587h1.7351a.5.5 0 0 0 0-1zm-15.6269-1.6846a.5463.5463 0 0 1 .5-.582h6.0254a.5463.5463 0 0 1 .5.582v1.6846h-7.0254zm12.082 23.9053a.5151.5151 0 0 1 -.499.5127h-16.0899a.5164.5164 0 0 1 -.5-.5049l-1.082-21.2285h18.9795z"></path><path d="m16.6182 8.3535a.5.5 0 0 0 -.5.5v16.93a.5.5 0 0 0 1 0v-16.93a.5.5 0 0 0 -.5-.5z"></path><path d="m21.5537 26.2832a.5.5 0 0 0 .5-.5v-16.9297a.5.5 0 0 0 -1 0v16.93a.5.5 0 0 0 .5.4997z"></path><path d="m11.541 8.3535a.5.5 0 0 0 -.5.5v16.93a.5.5 0 0 0 1 0v-16.93a.5.5 0 0 0 -.5-.5z"></path></g></svg>