<!-- icon666.com - MILLIONS vector ICONS FREE --><svg clip-rule="evenodd" fill-rule="evenodd" stroke-linejoin="round" stroke-miterlimit="2" viewBox="0 0 24 24" xmlns="http://www.w3.org/2000/svg"><g id="Icon"><g><path d="m16.404 2.067-8.193 8.193c-.281.281-.439.663-.439 1.06v4.536c0 .276.224.5.5.5h4.536c.397 0 .779-.158 1.06-.439 1.27-1.27 6.317-6.317 8.193-8.193.281-.281.439-.663.439-1.06 0-.398-.158-.78-.439-1.061-.941-.941-2.595-2.595-3.536-3.536-.281-.281-.663-.439-1.061-.439-.397 0-.779.158-1.06.439zm.707.708c.094-.094.221-.147.353-.147.133 0 .26.053.354.147l3.536 3.535c.093.094.146.221.146.354 0 .132-.053.259-.146.353l-8.193 8.193c-.094.093-.221.146-.353.146h-4.036v-4.036c0-.132.053-.259.147-.353z"></path><path d="m19.939 9.139-4.949-4.95c-.196-.195-.512-.195-.708 0-.195.195-.195.512 0 .707l4.95 4.95c.195.195.512.195.707 0 .195-.196.195-.512 0-.707z"></path><path d="m21.451 12.995s.031 5.646.043 7.994c.001.133-.051.261-.145.356-.094.094-.221.147-.354.147-.001 0-17.995 0-17.995 0-.133 0-.26-.053-.354-.146-.093-.094-.146-.221-.146-.354v-18c0-.276.224-.5.5-.5h9c.276 0 .5-.224.5-.5s-.224-.5-.5-.5h-9c-.828 0-1.5.672-1.5 1.5v18c0 .398.158.779.439 1.061.282.281.663.439 1.061.439h17.994c.4 0 .783-.159 1.064-.442.282-.283.439-.667.436-1.066-.012-2.348-.043-7.995-.043-7.995-.002-.276-.227-.498-.503-.497-.276.002-.499.227-.497.503z"></path></g></g></svg>